<svg width="120" height="28" viewBox="0 0 120 28" fill="none" xmlns="http://www.w3.org/2000/svg">
  <path
    fill-rule="evenodd"
    clip-rule="evenodd"
    d="M20 2C21.1046 2 22 2.89543 22 4V20C22 21.1046 21.1046 22 20 22H4C2.89543 22 2 21.1046 2 20V4C2 2.89543 2.89543 2 4 2H20ZM14.5 10.5C14.7761 10.5 15 10.7239 15 11V18C15 18.2761 14.7761 18.5 14.5 18.5H6.5C6.22386 18.5 6 18.2761 6 18V11C6 10.7239 6.22386 10.5 6.5 10.5H14.5Z"
    fill="#ffffff"
  />
  <text x="30" y="19.5" font-family="system-ui, -apple-system, sans-serif" font-size="16" font-weight="600" letter-spacing="-0.03em" fill="#ffffff">OUTKIT</text>
</svg>
