<svg width="120" height="28" viewBox="0 0 120 28" fill="none" xmlns="http://www.w3.org/2000/svg">
  <path
    fill-rule="evenodd"
    clip-rule="evenodd"
    d="M20 2C21.1046 2 22 2.89543 22 4V20C22 21.1046 21.1046 22 20 22H4C2.89543 22 2 21.1046 2 20V4C2 2.89543 2.89543 2 4 2H20ZM13.5 11.5C13.7761 11.5 14 11.7239 14 12V17C14 17.2761 13.7761 17.5 13.5 17.5H7.5C7.22386 17.5 7 17.2761 7 17V12C7 11.7239 7.22386 11.5 7.5 11.5H13.5Z"
    fill="#0a0a0a"
  />
  <text x="30" y="19.5" font-family="system-ui, -apple-system, sans-serif" font-size="16" font-weight="600" letter-spacing="-0.03em" fill="#0a0a0a">OUTKIT</text>
</svg>
